<?xml version="1.0" encoding="UTF-8" standalone="no"?>
<!DOCTYPE svg PUBLIC "-//W3C//DTD SVG 1.1//EN" "http://www.w3.org/Graphics/SVG/1.1/DTD/svg11.dtd">
<svg version="1.1" xmlns="http://www.w3.org/2000/svg" xmlns:xlink="http://www.w3.org/1999/xlink" preserveAspectRatio="xMidYMid meet" viewBox="0 0 50 50" width="50" height="50"><defs><path d="M0.84 14.24L24.75 47.45L48.31 13.99L32.49 22.31L32.38 1.85C24.31 1.9 19.26 1.92 17.25 1.93C16.44 1.94 15.78 2.6 15.79 3.41C15.8 5.94 15.84 12.27 15.89 22.39L0.84 14.24Z" id="h1djSaowyZ"></path></defs><g><g><g><g><filter id="shadow5337083" x="-8.16" y="-7.15" width="66.48" height="64.6" filterUnits="userSpaceOnUse" primitiveUnits="userSpaceOnUse"><feFlood></feFlood><feComposite in2="SourceAlpha" operator="in"></feComposite><feGaussianBlur stdDeviation="1"></feGaussianBlur><feOffset dx="1" dy="1" result="afterOffset"></feOffset><feFlood flood-color="#000000" flood-opacity="0.5"></feFlood><feComposite in2="afterOffset" operator="in"></feComposite><feMorphology operator="dilate" radius="1"></feMorphology><feComposite in2="SourceAlpha" operator="out"></feComposite></filter><path d="M0.84 14.24L24.75 47.45L48.31 13.99L32.49 22.31L32.38 1.85C24.31 1.9 19.26 1.92 17.25 1.93C16.44 1.94 15.78 2.6 15.79 3.41C15.8 5.94 15.84 12.27 15.89 22.39L0.84 14.24Z" id="c1SnrNHpL" fill="white" fill-opacity="1" filter="url(#shadow5337083)"></path></g><use xlink:href="#h1djSaowyZ" opacity="1" fill="#000000" fill-opacity="1"></use><g><use xlink:href="#h1djSaowyZ" opacity="1" fill-opacity="0" stroke="#000000" stroke-width="0" stroke-opacity="1"></use></g><g><filter id="shadow8065104" x="-9.16" y="-8.15" width="67.48" height="67.6" filterUnits="userSpaceOnUse" primitiveUnits="userSpaceOnUse"><feFlood></feFlood><feComposite in2="SourceAlpha" operator="out"></feComposite><feGaussianBlur stdDeviation="1"></feGaussianBlur><feOffset dx="0" dy="-2" result="afterOffset"></feOffset><feFlood flood-color="#ffffff" flood-opacity="0.8"></feFlood><feComposite in2="afterOffset" operator="in"></feComposite><feMorphology operator="dilate" radius="1"></feMorphology><feComposite in2="SourceAlpha" operator="in"></feComposite></filter><path d="M0.84 14.24L24.75 47.45L48.31 13.99L32.49 22.31L32.38 1.85C24.31 1.9 19.26 1.92 17.25 1.93C16.44 1.94 15.78 2.6 15.79 3.41C15.8 5.94 15.84 12.27 15.89 22.39L0.84 14.24Z" id="b1yAET6s8" fill="white" fill-opacity="1" filter="url(#shadow8065104)"></path></g></g></g></g></svg>