<?xml version="1.0" encoding="UTF-8" standalone="no"?>
<!DOCTYPE svg PUBLIC "-//W3C//DTD SVG 1.1//EN" "http://www.w3.org/Graphics/SVG/1.1/DTD/svg11.dtd">
<svg version="1.1" xmlns="http://www.w3.org/2000/svg" xmlns:xlink="http://www.w3.org/1999/xlink" preserveAspectRatio="xMidYMid meet" viewBox="0 0 50 50" width="50" height="50"><defs><path d="M35.06 0.15L1.19 24.54L35.01 49.01L26.66 32.67L47.43 32.7C47.43 24.38 47.44 19.18 47.44 17.1C47.44 16.28 46.78 15.61 45.96 15.61C43.39 15.61 36.96 15.6 26.68 15.59L35.06 0.15Z" id="apkqoks7b"></path></defs><g><g><g><g><filter id="shadow3563182" x="-7.81" y="-8.85" width="65.25" height="67.86" filterUnits="userSpaceOnUse" primitiveUnits="userSpaceOnUse"><feFlood></feFlood><feComposite in2="SourceAlpha" operator="in"></feComposite><feGaussianBlur stdDeviation="1"></feGaussianBlur><feOffset dx="1" dy="1" result="afterOffset"></feOffset><feFlood flood-color="#000000" flood-opacity="0.5"></feFlood><feComposite in2="afterOffset" operator="in"></feComposite><feMorphology operator="dilate" radius="1"></feMorphology><feComposite in2="SourceAlpha" operator="out"></feComposite></filter><path d="M35.06 0.15L1.19 24.54L35.01 49.01L26.66 32.67L47.43 32.7C47.43 24.38 47.44 19.18 47.44 17.1C47.44 16.28 46.78 15.61 45.96 15.61C43.39 15.61 36.96 15.6 26.68 15.59L35.06 0.15Z" id="g1dNo1AjAV" fill="white" fill-opacity="1" filter="url(#shadow3563182)"></path></g><use xlink:href="#apkqoks7b" opacity="1" fill="#000000" fill-opacity="1"></use><g><use xlink:href="#apkqoks7b" opacity="1" fill-opacity="0" stroke="#000000" stroke-width="0" stroke-opacity="1"></use></g><g><filter id="shadow6582836" x="-8.81" y="-9.85" width="68.25" height="68.86" filterUnits="userSpaceOnUse" primitiveUnits="userSpaceOnUse"><feFlood></feFlood><feComposite in2="SourceAlpha" operator="out"></feComposite><feGaussianBlur stdDeviation="1"></feGaussianBlur><feOffset dx="2" dy="0" result="afterOffset"></feOffset><feFlood flood-color="#ffffff" flood-opacity="0.8"></feFlood><feComposite in2="afterOffset" operator="in"></feComposite><feMorphology operator="dilate" radius="1"></feMorphology><feComposite in2="SourceAlpha" operator="in"></feComposite></filter><path d="M35.06 0.15L1.19 24.54L35.01 49.01L26.66 32.67L47.43 32.7C47.43 24.38 47.44 19.18 47.44 17.1C47.44 16.28 46.78 15.61 45.96 15.61C43.39 15.61 36.96 15.6 26.68 15.59L35.06 0.15Z" id="i1ecdsHXNF" fill="white" fill-opacity="1" filter="url(#shadow6582836)"></path></g></g></g></g></svg>