<?xml version="1.0" encoding="UTF-8" standalone="no"?>
<!DOCTYPE svg PUBLIC "-//W3C//DTD SVG 1.1//EN" "http://www.w3.org/Graphics/SVG/1.1/DTD/svg11.dtd">
<svg version="1.1" xmlns="http://www.w3.org/2000/svg" xmlns:xlink="http://www.w3.org/1999/xlink" preserveAspectRatio="xMidYMid meet" viewBox="0 0 50 50" width="50" height="50"><defs><path d="M13.57 0.15L47.44 24.54L13.63 49.01L21.97 32.67L1.21 32.7C1.2 24.38 1.19 19.18 1.19 17.1C1.19 16.28 1.85 15.61 2.68 15.61C5.25 15.61 11.67 15.6 21.95 15.59L13.57 0.15Z" id="c2aIGP8OqL"></path></defs><g><g><g><g><filter id="shadow4692488" x="-7.81" y="-8.85" width="65.25" height="67.86" filterUnits="userSpaceOnUse" primitiveUnits="userSpaceOnUse"><feFlood></feFlood><feComposite in2="SourceAlpha" operator="in"></feComposite><feGaussianBlur stdDeviation="1"></feGaussianBlur><feOffset dx="1" dy="1" result="afterOffset"></feOffset><feFlood flood-color="#000000" flood-opacity="0.5"></feFlood><feComposite in2="afterOffset" operator="in"></feComposite><feMorphology operator="dilate" radius="1"></feMorphology><feComposite in2="SourceAlpha" operator="out"></feComposite></filter><path d="M13.57 0.15L47.44 24.54L13.63 49.01L21.97 32.67L1.21 32.7C1.2 24.38 1.19 19.18 1.19 17.1C1.19 16.28 1.85 15.61 2.68 15.61C5.25 15.61 11.67 15.6 21.95 15.59L13.57 0.15Z" id="a313fOfg4P" fill="white" fill-opacity="1" filter="url(#shadow4692488)"></path></g><use xlink:href="#c2aIGP8OqL" opacity="1" fill="#000000" fill-opacity="1"></use><g><use xlink:href="#c2aIGP8OqL" opacity="1" fill-opacity="0" stroke="#000000" stroke-width="0" stroke-opacity="1"></use></g><g><filter id="shadow7051827" x="-8.81" y="-9.85" width="68.25" height="68.86" filterUnits="userSpaceOnUse" primitiveUnits="userSpaceOnUse"><feFlood></feFlood><feComposite in2="SourceAlpha" operator="out"></feComposite><feGaussianBlur stdDeviation="1"></feGaussianBlur><feOffset dx="2" dy="0" result="afterOffset"></feOffset><feFlood flood-color="#ffffff" flood-opacity="0.8"></feFlood><feComposite in2="afterOffset" operator="in"></feComposite><feMorphology operator="dilate" radius="1"></feMorphology><feComposite in2="SourceAlpha" operator="in"></feComposite></filter><path d="M13.57 0.15L47.44 24.54L13.63 49.01L21.97 32.67L1.21 32.7C1.2 24.38 1.19 19.18 1.19 17.1C1.19 16.28 1.85 15.61 2.68 15.61C5.25 15.61 11.67 15.6 21.95 15.59L13.57 0.15Z" id="a1KuAB3a4d" fill="white" fill-opacity="1" filter="url(#shadow7051827)"></path></g></g></g></g></svg>