<?xml version="1.0" encoding="UTF-8" standalone="no"?>
<!DOCTYPE svg PUBLIC "-//W3C//DTD SVG 1.1//EN" "http://www.w3.org/Graphics/SVG/1.1/DTD/svg11.dtd">
<svg version="1.1" xmlns="http://www.w3.org/2000/svg" xmlns:xlink="http://www.w3.org/1999/xlink" preserveAspectRatio="xMidYMid meet" viewBox="0 0 50 50" width="50" height="50"><defs><path d="M0 37.02L25.05 1.77L50 37.09L33.3 28.35L33.27 50C24.77 49.99 19.46 49.98 17.34 49.98C16.48 49.97 15.79 49.28 15.79 48.42C15.79 45.74 15.8 39.04 15.82 28.33L0 37.02Z" id="i4OjLIMm9v"></path></defs><g><g><g><g><filter id="shadow3722232" x="-9" y="-7.23" width="69" height="67.23" filterUnits="userSpaceOnUse" primitiveUnits="userSpaceOnUse"><feFlood></feFlood><feComposite in2="SourceAlpha" operator="in"></feComposite><feGaussianBlur stdDeviation="1"></feGaussianBlur><feOffset dx="1" dy="1" result="afterOffset"></feOffset><feFlood flood-color="#000000" flood-opacity="0.5"></feFlood><feComposite in2="afterOffset" operator="in"></feComposite><feMorphology operator="dilate" radius="1"></feMorphology><feComposite in2="SourceAlpha" operator="out"></feComposite></filter><path d="M0 37.02L25.05 1.77L50 37.09L33.3 28.35L33.27 50C24.77 49.99 19.46 49.98 17.34 49.98C16.48 49.97 15.79 49.28 15.79 48.42C15.79 45.74 15.8 39.04 15.82 28.33L0 37.02Z" id="a1y38yJX1B" fill="white" fill-opacity="1" filter="url(#shadow3722232)"></path></g><use xlink:href="#i4OjLIMm9v" opacity="1" fill="#000000" fill-opacity="1"></use><g><use xlink:href="#i4OjLIMm9v" opacity="1" fill-opacity="0" stroke="#000000" stroke-width="0" stroke-opacity="1"></use></g><g><filter id="shadow10698639" x="-10" y="-8.23" width="70" height="70.23" filterUnits="userSpaceOnUse" primitiveUnits="userSpaceOnUse"><feFlood></feFlood><feComposite in2="SourceAlpha" operator="out"></feComposite><feGaussianBlur stdDeviation="1"></feGaussianBlur><feOffset dx="0" dy="2" result="afterOffset"></feOffset><feFlood flood-color="#ffffff" flood-opacity="0.8"></feFlood><feComposite in2="afterOffset" operator="in"></feComposite><feMorphology operator="dilate" radius="1"></feMorphology><feComposite in2="SourceAlpha" operator="in"></feComposite></filter><path d="M0 37.02L25.05 1.77L50 37.09L33.3 28.35L33.27 50C24.77 49.99 19.46 49.98 17.34 49.98C16.48 49.97 15.79 49.28 15.79 48.42C15.79 45.74 15.8 39.04 15.82 28.33L0 37.02Z" id="aSyCoZ2ol" fill="white" fill-opacity="1" filter="url(#shadow10698639)"></path></g></g></g></g></svg>